Enemy at the Gates *2001*[1080p.TRUE HD 5.1.AC3.BluRay.x264-LEON 345]
 ===================================================================



Produkcja: Irlandia, Niemcy, USA, Wielka Brytania
 Gatunek: Dramat, Wojenny
 Data premiery: 2001-04-20 (Polska), 2001-02-07 (Świat)
 Reżyseria: Jean-Jacques Annaud
 Scenariusz: Jean-Jacques Annaud, Alain Godard
 Zdjęcia: Robert Fraisse
 Muzyka: James Horner
 Na podstawie: powieści "Enemy at the Gates: The Battle for Stalingrad" Williama Craiga

 Druga Wojna Światowa. Pod Staliningradem toczy się zażarta walka. Osławiony swoimi snajperskimi wyczynami Rosjanin Wasilij Zajcew, podstępnie eliminuje wrogów. Wieść o jego wyczynach dociera do obozu niemieckiego, gdzie powstaje plan rozprawienia się z groźnym przeciwnikiem. W rezultacie dochodzi do pojedynku Zajcewa z najlepszym strzelcem niemieckim, majorem Konigiem. Dwóch żołnierzy zaczyna prowadzić ze sobą dramatyczną walkę, której tłem są historyczne wydarzenia znad Wołgi.

 General
 Unique ID                      : 179831773253136506131993212173141087868 (0x874A56F6F9BAA22C87EC4CA64F17167C)
 Complete name                  : F:FilmyFilmy 3DSzablonWstawkaENEMY_AT_THE_GATES_2001(Leon 345)ENEMY_AT_THE_GATES_2001(Leon 345).mkv
 Format                         : Matroska
 Format version                 : Version 2
 File size                      : 13.6 GiB
 Duration                       : 2h 11mn
 Encoding type                  : 2  pass
 Overall bit rate mode          : Variable
 Overall bit rate               : 14.9 Mbps
 Encoded date                   : UTC 2013-06-15 19:06:10
 Writing application            : mkvmerge v5.7.0 ('The Whirlwind') built on Jul  8 2012 20:08:51
 Writing library                : libebml v1.2.3 + libmatroska v1.3.0

 Video
 ID                             : 1
 Format                         : AVC
 Format/Info                    : Advanced Video Codec
 Format profile                 : High@L4.1
 Format settings, CABAC         : Yes
 Format settings, ReFrames      : 2 frames
 Codec ID                       : V_MPEG4/ISO/AVC
 Duration                       : 2h 11mn
 Bit rate mode                  : Variable
 Nominal bit rate               : 10.1 Mbps
 Maximum bit rate               : 34.8 Mbps
 Width                          : 1 920 pixels
 Height                         : 1 080 pixels
 Display aspect ratio           : 16:9 (2.39:1)
 Frame rate mode                : Constant
 Frame rate                     : 23.976 fps
 Color space                    : YUV
 Chroma subsampling             : 4:2:0
 Bit depth                      : 8 bits
 Scan type                      : Progressive
 Bits/(Pixel*Frame)             : 0.202
 Title                          : Rip  by Leon 345 encoding  2 pass
 Writing library                : x264 core 132 r2309 3b1f1f7
 Default                        : Yes
 Forced                         : No

 Audio #1
 ID                             : 2
 Format                         : AC-3
 Format/Info                    : Audio Coding 3
 Mode extension                 : CM (complete main)
 Format settings, Endianness    : Big
 Codec ID                       : A_AC3
 Duration                       : 2h 11mn
 Bit rate mode                  : Constant
 Bit rate                       : 640 Kbps
 Channel(s)                     : 6 channels
 Channel positions              : Front: L C R, Side: L R, LFE
 Sampling rate                  : 48.0 KHz
 Bit depth                      : 16 bits
 Compression mode               : Lossy
 Stream size                    : 600 MiB (4%)
 Title                          : AC3  5.1  Lektor  PL
 Language                       : Polish
 Default                        : Yes
 Forced                         : Yes

 Audio #2
 ID                             : 3
 Format                         : AC-3
 Format/Info                    : Audio Coding 3
 Mode extension                 : CM (complete main)
 Format settings, Endianness    : Big
 Codec ID                       : A_AC3
 Duration                       : 2h 11mn
 Bit rate mode                  : Constant
 Bit rate                       : 640 Kbps
 Channel(s)                     : 6 channels
 Channel positions              : Front: L C R, Side: L R, LFE
 Sampling rate                  : 48.0 KHz
 Bit depth                      : 16 bits
 Compression mode               : Lossy
 Stream size                    : 600 MiB (4%)
 Title                          : AC3  5.1  Orginal
 Language                       : English
 Default                        : No
 Forced                         : No

 Audio #3
 ID                             : 4
 Format                         : TrueHD
 Codec ID                       : A_TRUEHD
 Duration                       : 2h 11mn
 Bit rate mode                  : Variable
 Maximum bit rate               : 4 950 Kbps
 Channel(s)                     : 6 channels
 Channel positions              : Front: L C R, Side: L R, LFE
 Sampling rate                  : 48.0 KHz
 Compression mode               : Lossless
 Title                          : Dolby True HD 5.1  Orginal
 Language                       : English
 Default                        : No
 Forced                         : No

 Text #1
 ID                             : 5
 Format                         : UTF-8
 Codec ID                       : S_TEXT/UTF8
 Codec ID/Info                  : UTF-8 Plain Text
 Language                       : Polish
 Default                        : No
 Forced                         : No

 Text #2
 ID                             : 6
 Format                         : PGS
 Muxing mode                    : zlib
 Codec ID                       : S_HDMV/PGS
 Codec ID/Info                  : The same subtitle format used on BDs/HD-DVDs
 Language                       : English
 Default                        : No
 Forced                         : No

 Text #3
 ID                             : 7
 Format                         : UTF-8
 Codec ID                       : S_TEXT/UTF8
 Codec ID/Info                  : UTF-8 Plain Text
 Default                        : Yes
 Forced                         : Yes

 Source [thx]:
 A/V-BDRemux 1080p Rus Eng DTS TrueHD
 Polski Lektor- HDBT